<svg width="15" height="16" viewBox="0 0 15 16" fill="#000000" xmlns="http://www.w3.org/2000/svg">
<path d="M7.40267 0.5C4.92577 0.5 2.91211 2.0975 2.91211 4.0625C2.91211 5.99 4.81232 7.55 7.28922 7.6175C7.36485 7.61 7.44048 7.61 7.4972 7.6175C7.51611 7.6175 7.52557 7.6175 7.54447 7.6175C7.55393 7.6175 7.55393 7.6175 7.56338 7.6175C9.98355 7.55 11.8838 5.99 11.8932 4.0625C11.8932 2.0975 9.87956 0.5 7.40267 0.5Z" fill="black"/>
<path d="M12.205 9.61253C9.56741 8.21753 5.26593 8.21753 2.60941 9.61253C1.40878 10.25 0.747009 11.1125 0.747009 12.035C0.747009 12.9575 1.40878 13.8125 2.59996 14.4425C3.92349 15.1475 5.66299 15.5 7.40249 15.5C9.14199 15.5 10.8815 15.1475 12.205 14.4425C13.3962 13.805 14.058 12.95 14.058 12.02C14.0485 11.0975 13.3962 10.2425 12.205 9.61253Z" fill="black"/>
</svg>
